<svg width="327" height="158" viewBox="0 0 327 158" fill="none" xmlns="http://www.w3.org/2000/svg">
<path d="M52.4664 11.2404C30.0157 -7.30591 8.13433 3.51274 0 11.2404V157.658H327V17.3409C317.239 17.3409 318.459 64.9268 300.157 64.9268C289.175 64.9268 286.735 52.7253 275.754 52.7253C261.112 52.7253 258.672 75.9081 236.709 75.9081C214.746 75.9081 200.104 50.285 167.16 75.9081C134.216 101.531 119.575 101.531 100.052 86.8895C80.5299 72.2477 80.5299 34.4232 52.4664 11.2404Z" fill="url(#paint0_linear_2183_7749)" style="mix-blend-mode:multiply"/>
<path d="M0 11.2404C8.13433 3.51274 30.0157 -7.30591 52.4664 11.2404C80.5299 34.4232 80.5299 72.2477 100.052 86.8895C119.575 101.531 134.216 101.531 167.16 75.9081C200.104 50.285 214.746 75.9081 236.709 75.9081C258.672 75.9081 261.112 52.7253 275.754 52.7253C286.735 52.7253 289.175 64.9268 300.157 64.9268C318.459 64.9268 317.239 17.3409 327 17.3409" stroke="#18191F" stroke-width="2"/>
<defs>
<linearGradient id="paint0_linear_2183_7749" x1="163.5" y1="6.3596" x2="163.5" y2="157.658" gradientUnits="userSpaceOnUse">
<stop stop-color="#FFD465"/>
<stop offset="1" stop-color="#FFD465" stop-opacity="0"/>
</linearGradient>
</defs>
</svg>
