<svg width="327" height="160" viewBox="0 0 327 160" fill="none" xmlns="http://www.w3.org/2000/svg">
<g clip-path="url(#clip0_0_5)">
<path d="M52.4664 13.2404C30.0157 -5.30591 8.13433 5.51274 0 13.2404V159.658H327V19.3409C317.239 19.3409 318.459 66.9268 300.157 66.9268C289.175 66.9268 286.735 54.7253 275.754 54.7253C261.112 54.7253 258.672 77.9081 236.709 77.9081C214.746 77.9081 200.104 52.285 167.16 77.9081C134.216 103.531 119.575 103.531 100.052 88.8895C80.5299 74.2477 80.5299 36.4232 52.4664 13.2404Z" fill="url(#paint0_linear_0_5)" style="mix-blend-mode:multiply"/>
<path d="M0 13.2404C8.13433 5.51274 30.0157 -5.30591 52.4664 13.2404C80.5299 36.4232 80.5299 74.2477 100.052 88.8895C119.575 103.531 134.216 103.531 167.16 77.9081C200.104 52.285 214.746 77.9081 236.709 77.9081C258.672 77.9081 261.112 54.7253 275.754 54.7253C286.735 54.7253 289.175 66.9268 300.157 66.9268C318.459 66.9268 317.239 19.3409 327 19.3409" stroke="#18191F" stroke-width="2"/>
<path d="M0 160H327" stroke="black" stroke-width="2"/>
<path d="M275 17.5V158.5" stroke="black" stroke-linecap="round" stroke-dasharray="2 4"/>
<circle cx="275" cy="54" r="6" fill="#F95A2C" stroke="#18191F" stroke-width="2"/>
<path d="M12.66 147V133H18.72C19.9733 133 21.0533 133.207 21.96 133.62C22.8667 134.02 23.5667 134.6 24.06 135.36C24.5533 136.12 24.8 137.027 24.8 138.08C24.8 139.12 24.5533 140.02 24.06 140.78C23.5667 141.527 22.8667 142.1 21.96 142.5C21.0533 142.9 19.9733 143.1 18.72 143.1H14.46L15.9 141.68V147H12.66ZM21.56 147L18.06 141.92H21.52L25.06 147H21.56ZM15.9 142.04L14.46 140.52H18.54C19.54 140.52 20.2867 140.307 20.78 139.88C21.2733 139.44 21.52 138.84 21.52 138.08C21.52 137.307 21.2733 136.707 20.78 136.28C20.2867 135.853 19.54 135.64 18.54 135.64H14.46L15.9 134.1V142.04ZM35.167 147.24C34.0604 147.24 33.0337 147.06 32.087 146.7C31.1537 146.34 30.3404 145.833 29.647 145.18C28.967 144.527 28.4337 143.76 28.047 142.88C27.6737 142 27.487 141.04 27.487 140C27.487 138.96 27.6737 138 28.047 137.12C28.4337 136.24 28.9737 135.473 29.667 134.82C30.3604 134.167 31.1737 133.66 32.107 133.3C33.0404 132.94 34.0537 132.76 35.147 132.76C36.2537 132.76 37.267 132.94 38.187 133.3C39.1204 133.66 39.927 134.167 40.607 134.82C41.3004 135.473 41.8404 136.24 42.227 137.12C42.6137 137.987 42.807 138.947 42.807 140C42.807 141.04 42.6137 142.007 42.227 142.9C41.8404 143.78 41.3004 144.547 40.607 145.2C39.927 145.84 39.1204 146.34 38.187 146.7C37.267 147.06 36.2604 147.24 35.167 147.24ZM35.147 144.48C35.7737 144.48 36.347 144.373 36.867 144.16C37.4004 143.947 37.867 143.64 38.267 143.24C38.667 142.84 38.9737 142.367 39.187 141.82C39.4137 141.273 39.527 140.667 39.527 140C39.527 139.333 39.4137 138.727 39.187 138.18C38.9737 137.633 38.667 137.16 38.267 136.76C37.8804 136.36 37.4204 136.053 36.887 135.84C36.3537 135.627 35.7737 135.52 35.147 135.52C34.5204 135.52 33.9404 135.627 33.407 135.84C32.887 136.053 32.427 136.36 32.027 136.76C31.627 137.16 31.3137 137.633 31.087 138.18C30.8737 138.727 30.767 139.333 30.767 140C30.767 140.653 30.8737 141.26 31.087 141.82C31.3137 142.367 31.6204 142.84 32.007 143.24C32.407 143.64 32.8737 143.947 33.407 144.16C33.9404 144.373 34.5204 144.48 35.147 144.48ZM44.2067 147L50.4467 133H53.6467L59.9067 147H56.5067L51.3867 134.64H52.6667L47.5267 147H44.2067ZM47.3267 144L48.1867 141.54H55.3867L56.2667 144H47.3267ZM62.3592 147V133H68.7192C70.2392 133 71.5792 133.293 72.7392 133.88C73.8992 134.453 74.8059 135.26 75.4592 136.3C76.1126 137.34 76.4392 138.573 76.4392 140C76.4392 141.413 76.1126 142.647 75.4592 143.7C74.8059 144.74 73.8992 145.553 72.7392 146.14C71.5792 146.713 70.2392 147 68.7192 147H62.3592ZM65.5992 144.34H68.5592C69.4926 144.34 70.2992 144.167 70.9792 143.82C71.6726 143.46 72.2059 142.953 72.5792 142.3C72.9659 141.647 73.1592 140.88 73.1592 140C73.1592 139.107 72.9659 138.34 72.5792 137.7C72.2059 137.047 71.6726 136.547 70.9792 136.2C70.2992 135.84 69.4926 135.66 68.5592 135.66H65.5992V144.34ZM89.4467 147V135.64H84.9667V133H97.1667V135.64H92.6867V147H89.4467ZM106.515 147.24C105.408 147.24 104.381 147.06 103.435 146.7C102.501 146.34 101.688 145.833 100.995 145.18C100.315 144.527 99.7814 143.76 99.3947 142.88C99.0214 142 98.8347 141.04 98.8347 140C98.8347 138.96 99.0214 138 99.3947 137.12C99.7814 136.24 100.321 135.473 101.015 134.82C101.708 134.167 102.521 133.66 103.455 133.3C104.388 132.94 105.401 132.76 106.495 132.76C107.601 132.76 108.615 132.94 109.535 133.3C110.468 133.66 111.275 134.167 111.955 134.82C112.648 135.473 113.188 136.24 113.575 137.12C113.961 137.987 114.155 138.947 114.155 140C114.155 141.04 113.961 142.007 113.575 142.9C113.188 143.78 112.648 144.547 111.955 145.2C111.275 145.84 110.468 146.34 109.535 146.7C108.615 147.06 107.608 147.24 106.515 147.24ZM106.495 144.48C107.121 144.48 107.695 144.373 108.215 144.16C108.748 143.947 109.215 143.64 109.615 143.24C110.015 142.84 110.321 142.367 110.535 141.82C110.761 141.273 110.875 140.667 110.875 140C110.875 139.333 110.761 138.727 110.535 138.18C110.321 137.633 110.015 137.16 109.615 136.76C109.228 136.36 108.768 136.053 108.235 135.84C107.701 135.627 107.121 135.52 106.495 135.52C105.868 135.52 105.288 135.627 104.755 135.84C104.235 136.053 103.775 136.36 103.375 136.76C102.975 137.16 102.661 137.633 102.435 138.18C102.221 138.727 102.115 139.333 102.115 140C102.115 140.653 102.221 141.26 102.435 141.82C102.661 142.367 102.968 142.84 103.355 143.24C103.755 143.64 104.221 143.947 104.755 144.16C105.288 144.373 105.868 144.48 106.495 144.48ZM128.854 147.24C127.734 147.24 126.66 147.093 125.634 146.8C124.607 146.493 123.78 146.1 123.154 145.62L124.254 143.18C124.854 143.607 125.56 143.96 126.374 144.24C127.2 144.507 128.034 144.64 128.874 144.64C129.514 144.64 130.027 144.58 130.414 144.46C130.814 144.327 131.107 144.147 131.294 143.92C131.48 143.693 131.574 143.433 131.574 143.14C131.574 142.767 131.427 142.473 131.134 142.26C130.84 142.033 130.454 141.853 129.974 141.72C129.494 141.573 128.96 141.44 128.374 141.32C127.8 141.187 127.22 141.027 126.634 140.84C126.06 140.653 125.534 140.413 125.054 140.12C124.574 139.827 124.18 139.44 123.874 138.96C123.58 138.48 123.434 137.867 123.434 137.12C123.434 136.32 123.647 135.593 124.074 134.94C124.514 134.273 125.167 133.747 126.034 133.36C126.914 132.96 128.014 132.76 129.334 132.76C130.214 132.76 131.08 132.867 131.934 133.08C132.787 133.28 133.54 133.587 134.194 134L133.194 136.46C132.54 136.087 131.887 135.813 131.234 135.64C130.58 135.453 129.94 135.36 129.314 135.36C128.687 135.36 128.174 135.433 127.774 135.58C127.374 135.727 127.087 135.92 126.914 136.16C126.74 136.387 126.654 136.653 126.654 136.96C126.654 137.32 126.8 137.613 127.094 137.84C127.387 138.053 127.774 138.227 128.254 138.36C128.734 138.493 129.26 138.627 129.834 138.76C130.42 138.893 131 139.047 131.574 139.22C132.16 139.393 132.694 139.627 133.174 139.92C133.654 140.213 134.04 140.6 134.334 141.08C134.64 141.56 134.794 142.167 134.794 142.9C134.794 143.687 134.574 144.407 134.134 145.06C133.694 145.713 133.034 146.24 132.154 146.64C131.287 147.04 130.187 147.24 128.854 147.24ZM144.228 147.24C142.241 147.24 140.688 146.687 139.568 145.58C138.448 144.473 137.888 142.893 137.888 140.84V133H141.128V140.72C141.128 142.053 141.401 143.013 141.948 143.6C142.494 144.187 143.261 144.48 144.248 144.48C145.234 144.48 146.001 144.187 146.548 143.6C147.094 143.013 147.368 142.053 147.368 140.72V133H150.568V140.84C150.568 142.893 150.008 144.473 148.888 145.58C147.768 146.687 146.214 147.24 144.228 147.24ZM154.769 147V133H158.009V147H154.769ZM168.996 147V133H175.836C177.596 133 178.916 133.333 179.796 134C180.689 134.667 181.136 135.547 181.136 136.64C181.136 137.373 180.956 138.013 180.596 138.56C180.236 139.093 179.743 139.507 179.116 139.8C178.489 140.093 177.769 140.24 176.956 140.24L177.336 139.42C178.216 139.42 178.996 139.567 179.676 139.86C180.356 140.14 180.883 140.56 181.256 141.12C181.643 141.68 181.836 142.367 181.836 143.18C181.836 144.38 181.363 145.32 180.416 146C179.469 146.667 178.076 147 176.236 147H168.996ZM172.216 144.56H175.996C176.836 144.56 177.469 144.427 177.896 144.16C178.336 143.88 178.556 143.44 178.556 142.84C178.556 142.253 178.336 141.82 177.896 141.54C177.469 141.247 176.836 141.1 175.996 141.1H171.976V138.74H175.436C176.223 138.74 176.823 138.607 177.236 138.34C177.663 138.06 177.876 137.64 177.876 137.08C177.876 136.533 177.663 136.127 177.236 135.86C176.823 135.58 176.223 135.44 175.436 135.44H172.216V144.56ZM191.509 147.24C189.522 147.24 187.969 146.687 186.849 145.58C185.729 144.473 185.169 142.893 185.169 140.84V133H188.409V140.72C188.409 142.053 188.682 143.013 189.229 143.6C189.776 144.187 190.542 144.48 191.529 144.48C192.516 144.48 193.282 144.187 193.829 143.6C194.376 143.013 194.649 142.053 194.649 140.72V133H197.849V140.84C197.849 142.893 197.289 144.473 196.169 145.58C195.049 146.687 193.496 147.24 191.509 147.24ZM202.051 147V133H205.291V147H202.051ZM209.613 147V133H212.853V144.36H219.873V147H209.613ZM222.683 147V133H229.043C230.563 133 231.903 133.293 233.063 133.88C234.223 134.453 235.13 135.26 235.783 136.3C236.437 137.34 236.763 138.573 236.763 140C236.763 141.413 236.437 142.647 235.783 143.7C235.13 144.74 234.223 145.553 233.063 146.14C231.903 146.713 230.563 147 229.043 147H222.683ZM225.923 144.34H228.883C229.817 144.34 230.623 144.167 231.303 143.82C231.997 143.46 232.53 142.953 232.903 142.3C233.29 141.647 233.483 140.88 233.483 140C233.483 139.107 233.29 138.34 232.903 137.7C232.53 137.047 231.997 136.547 231.303 136.2C230.623 135.84 229.817 135.66 228.883 135.66H225.923V144.34ZM243.187 138.64H249.927V141.16H243.187V138.64ZM243.427 144.4H251.047V147H240.207V133H250.787V135.6H243.427V144.4ZM254.625 147V133H260.685C261.938 133 263.018 133.207 263.925 133.62C264.832 134.02 265.532 134.6 266.025 135.36C266.518 136.12 266.765 137.027 266.765 138.08C266.765 139.12 266.518 140.02 266.025 140.78C265.532 141.527 264.832 142.1 263.925 142.5C263.018 142.9 261.938 143.1 260.685 143.1H256.425L257.865 141.68V147H254.625ZM263.525 147L260.025 141.92H263.485L267.025 147H263.525ZM257.865 142.04L256.425 140.52H260.505C261.505 140.52 262.252 140.307 262.745 139.88C263.238 139.44 263.485 138.84 263.485 138.08C263.485 137.307 263.238 136.707 262.745 136.28C262.252 135.853 261.505 135.64 260.505 135.64H256.425L257.865 134.1V142.04Z" fill="#53640B"/>
</g>
<defs>
<linearGradient id="paint0_linear_0_5" x1="163.5" y1="8.3596" x2="163.5" y2="159.658" gradientUnits="userSpaceOnUse">
<stop stop-color="#FFD465"/>
<stop offset="1" stop-color="#FFD465" stop-opacity="0"/>
</linearGradient>
<clipPath id="clip0_0_5">
<rect width="327" height="160" fill="white"/>
</clipPath>
</defs>
</svg>
